<mxfile host="app.diagrams.net" modified="2023-05-13T11:59:14.559Z" agent="Mozilla/5.0 (X11; Linux x86_64) AppleWebKit/537.36 (KHTML, like Gecko) Chrome/113.0.0.0 Safari/537.36" version="21.3.0" etag="picjHmy0PcWiTs0ALzIn" type="github">
  <diagram name="第 1 页" id="Fq_7bFFHUrejeTsrs-1e">
    <mxGraphModel>
      <root>
        <mxCell id="0" />
        <mxCell id="1" parent="0" />
      </root>
    </mxGraphModel>
  </diagram>
</mxfile>
